# xmcd CD database file
#
# Track frame offsets:
#	150
#	22809
#	45341
#	67987
#
# Disc length: 1204 seconds
#
# Revision: 1
# Processed by: cddbd v1.5.1PL0 Copyright (c) Steve Scherf et al.
# Submitted via: CDex 1.50
#
DISCID=2204b204
DTITLE=Whoops - ????
DYEAR=1999
DGENRE=General Pop
TTITLE0=????
TTITLE1=??????
TTITLE2=????(????)
TTITLE3=??????(????)
EXTD=YEAR: 1999
EXTT0=
EXTT1=
EXTT2=
EXTT3=
PLAYORDER=
